<svg version="1.1" viewBox="0.0 0.0 250.2782152230971 331.84251968503935" fill="none" stroke="none" stroke-linecap="square" stroke-miterlimit="10" xmlns:xlink="http://www.w3.org/1999/xlink" xmlns="http://www.w3.org/2000/svg"><clipPath id="p.0"><path d="m0 0l250.27821 0l0 331.84253l-250.27821 0l0 -331.84253z" clip-rule="nonzero"/></clipPath><g clip-path="url(#p.0)"><path fill="#000000" fill-opacity="0.0" d="m0 0l250.27821 0l0 331.84253l-250.27821 0z" fill-rule="evenodd"/><path fill="#ffffff" d="m53.83486 26.927822l0 0c0 -12.3677 10.026001 -22.393702 22.3937 -22.393702l0 0c5.9391785 0 11.635101 2.3593297 15.83474 6.558963c4.1996307 4.1996336 6.55896 9.89556 6.55896 15.834739l0 0c0 12.367699 -10.026001 22.3937 -22.3937 22.3937l0 0c-12.367699 0 -22.3937 -10.026001 -22.3937 -22.3937z" fill-rule="evenodd"/><path stroke="#000000" stroke-width="1.0" stroke-linejoin="round" stroke-linecap="butt" d="m53.83486 26.927822l0 0c0 -12.3677 10.026001 -22.393702 22.3937 -22.393702l0 0c5.9391785 0 11.635101 2.3593297 15.83474 6.558963c4.1996307 4.1996336 6.55896 9.89556 6.55896 15.834739l0 0c0 12.367699 -10.026001 22.3937 -22.3937 22.3937l0 0c-12.367699 0 -22.3937 -10.026001 -22.3937 -22.3937z" fill-rule="evenodd"/><path fill="#fce5cd" d="m9.023607 104.0335l0 0c-4.983609 -11.315308 0.14925194 -24.528198 11.464567 -29.51181l0 0c5.4338055 -2.3932114 11.595757 -2.529831 17.130295 -0.37980652c5.5345383 2.1500168 9.9883 6.410568 12.3815155 11.844376l0 0c4.9836082 11.315315 -0.14925385 24.528206 -11.464565 29.51181l0 0c-11.315315 4.983612 -24.528204 -0.14925385 -29.511812 -11.464569z" fill-rule="evenodd"/><path stroke="#000000" stroke-width="1.0" stroke-linejoin="round" stroke-linecap="butt" d="m9.023607 104.0335l0 0c-4.983609 -11.315308 0.14925194 -24.528198 11.464567 -29.51181l0 0c5.4338055 -2.3932114 11.595757 -2.529831 17.130295 -0.37980652c5.5345383 2.1500168 9.9883 6.410568 12.3815155 11.844376l0 0c4.9836082 11.315315 -0.14925385 24.528206 -11.464565 29.51181l0 0c-11.315315 4.983612 -24.528204 -0.14925385 -29.511812 -11.464569z" fill-rule="evenodd"/><path fill="#000000" fill-opacity="0.0" d="m60.393826 42.762558l-22.771656 31.370079" fill-rule="evenodd"/><path stroke="#000000" stroke-width="4.0" stroke-linejoin="round" stroke-linecap="butt" d="m60.393826 42.762558l-22.771656 31.370079" fill-rule="evenodd"/><path fill="#cfe2f3" d="m101.66334 87.37513l0 0c4.218239 -11.611031 17.050392 -17.604065 28.661415 -13.385826l0 0c5.575821 2.0256653 10.118561 6.1833496 12.628891 11.558411c2.5103302 5.375061 2.782608 11.527191 0.75694275 17.103004l0 0c-4.2182465 11.611023 -17.050392 17.604065 -28.661423 13.385826l0 0c-11.611023 -4.218239 -17.604065 -17.050392 -13.385826 -28.661415z" fill-rule="evenodd"/><path stroke="#000000" stroke-width="1.0" stroke-linejoin="round" stroke-linecap="butt" d="m101.66334 87.37513l0 0c4.218239 -11.611031 17.050392 -17.604065 28.661415 -13.385826l0 0c5.575821 2.0256653 10.118561 6.1833496 12.628891 11.558411c2.5103302 5.375061 2.782608 11.527191 0.75694275 17.103004l0 0c-4.2182465 11.611023 -17.050392 17.604065 -28.661423 13.385826l0 0c-11.611023 -4.218239 -17.604065 -17.050392 -13.385826 -28.661415z" fill-rule="evenodd"/><path fill="#000000" fill-opacity="0.0" d="m92.0633 42.762558l21.165352 31.968506" fill-rule="evenodd"/><path stroke="#000000" stroke-width="4.0" stroke-linejoin="round" stroke-linecap="butt" d="m92.0633 42.762558l21.165352 31.968506" fill-rule="evenodd"/><path fill="#ffffff" d="m100.00287 95.00709l0 0c0 -12.367699 10.026001 -22.3937 22.3937 -22.3937l0 0c5.939171 0 11.635109 2.3593292 15.83474 6.55896c4.1996307 4.1996384 6.55896 9.895561 6.55896 15.83474l0 0c0 12.367699 -10.026001 22.3937 -22.3937 22.3937l0 0c-12.367699 0 -22.3937 -10.026001 -22.3937 -22.3937z" fill-rule="evenodd"/><path stroke="#000000" stroke-width="1.0" stroke-linejoin="round" stroke-linecap="butt" d="m100.00287 95.00709l0 0c0 -12.367699 10.026001 -22.3937 22.3937 -22.3937l0 0c5.939171 0 11.635109 2.3593292 15.83474 6.55896c4.1996307 4.1996384 6.55896 9.895561 6.55896 15.83474l0 0c0 12.367699 -10.026001 22.3937 -22.3937 22.3937l0 0c-12.367699 0 -22.3937 -10.026001 -22.3937 -22.3937z" fill-rule="evenodd"/><path fill="#fce5cd" d="m55.191612 172.11278l0 0c-4.9836082 -11.315323 0.14925385 -24.528214 11.464569 -29.511826l0 0c5.4337997 -2.3932037 11.595757 -2.529831 17.130295 -0.37980652c5.5345383 2.1500244 9.988304 6.410568 12.3815155 11.844376l0 0c4.9836044 11.315323 -0.14925385 24.528214 -11.464569 29.51181l0 0c-11.315315 4.983612 -24.528202 -0.14924622 -29.51181 -11.464554z" fill-rule="evenodd"/><path stroke="#000000" stroke-width="1.0" stroke-linejoin="round" stroke-linecap="butt" d="m55.191612 172.11278l0 0c-4.9836082 -11.315323 0.14925385 -24.528214 11.464569 -29.511826l0 0c5.4337997 -2.3932037 11.595757 -2.529831 17.130295 -0.37980652c5.5345383 2.1500244 9.988304 6.410568 12.3815155 11.844376l0 0c4.9836044 11.315323 -0.14925385 24.528214 -11.464569 29.51181l0 0c-11.315315 4.983612 -24.528202 -0.14924622 -29.51181 -11.464554z" fill-rule="evenodd"/><path fill="#000000" fill-opacity="0.0" d="m106.56183 110.84183l-22.771652 31.370071" fill-rule="evenodd"/><path stroke="#000000" stroke-width="4.0" stroke-linejoin="round" stroke-linecap="butt" d="m106.56183 110.84183l-22.771652 31.370071" fill-rule="evenodd"/><path fill="#cfe2f3" d="m147.83134 155.45439l0 0c4.218231 -11.611023 17.050385 -17.604065 28.661423 -13.3858185l0 0c5.5758057 2.0256653 10.118546 6.1833496 12.628876 11.558411c2.5103302 5.375061 2.782608 11.527191 0.75694275 17.102997l0 0c-4.218231 11.611023 -17.050385 17.604065 -28.661407 13.385834l0 0c-11.611038 -4.2182465 -17.604065 -17.0504 -13.385834 -28.661423z" fill-rule="evenodd"/><path stroke="#000000" stroke-width="1.0" stroke-linejoin="round" stroke-linecap="butt" d="m147.83134 155.45439l0 0c4.218231 -11.611023 17.050385 -17.604065 28.661423 -13.3858185l0 0c5.5758057 2.0256653 10.118546 6.1833496 12.628876 11.558411c2.5103302 5.375061 2.782608 11.527191 0.75694275 17.102997l0 0c-4.218231 11.611023 -17.050385 17.604065 -28.661407 13.385834l0 0c-11.611038 -4.2182465 -17.604065 -17.0504 -13.385834 -28.661423z" fill-rule="evenodd"/><path fill="#000000" fill-opacity="0.0" d="m138.23131 110.84183l21.165344 31.968506" fill-rule="evenodd"/><path stroke="#000000" stroke-width="4.0" stroke-linejoin="round" stroke-linecap="butt" d="m138.23131 110.84183l21.165344 31.968506" fill-rule="evenodd"/><path fill="#ffffff" d="m146.702 162.64154l0 0c0 -12.367706 10.026001 -22.393707 22.393707 -22.393707l0 0c5.9391785 0 11.635101 2.3593292 15.834732 6.55896c4.1996307 4.199646 6.55896 9.895569 6.55896 15.834747l0 0c0 12.367691 -10.026001 22.393692 -22.393692 22.393692l0 0c-12.367706 0 -22.393707 -10.026001 -22.393707 -22.393692z" fill-rule="evenodd"/><path stroke="#000000" stroke-width="1.0" stroke-linejoin="round" stroke-linecap="butt" d="m146.702 162.64154l0 0c0 -12.367706 10.026001 -22.393707 22.393707 -22.393707l0 0c5.9391785 0 11.635101 2.3593292 15.834732 6.55896c4.1996307 4.199646 6.55896 9.895569 6.55896 15.834747l0 0c0 12.367691 -10.026001 22.393692 -22.393692 22.393692l0 0c-12.367706 0 -22.393707 -10.026001 -22.393707 -22.393692z" fill-rule="evenodd"/><path fill="#cfe2f3" d="m101.89074 239.74722l0 0c-4.9836044 -11.315323 0.14925385 -24.528214 11.464569 -29.51181l0 0c5.4338074 -2.393219 11.595757 -2.5298462 17.130302 -0.37982178c5.5345306 2.1500244 9.9882965 6.4105835 12.3815155 11.844391l0 0c4.983597 11.315308 -0.14926147 24.528198 -11.464569 29.51181l0 0c-11.315315 4.983612 -24.528206 -0.14926147 -29.511818 -11.464569z" fill-rule="evenodd"/><path stroke="#000000" stroke-width="1.0" stroke-linejoin="round" stroke-linecap="butt" d="m101.89074 239.74722l0 0c-4.9836044 -11.315323 0.14925385 -24.528214 11.464569 -29.51181l0 0c5.4338074 -2.393219 11.595757 -2.5298462 17.130302 -0.37982178c5.5345306 2.1500244 9.9882965 6.4105835 12.3815155 11.844391l0 0c4.983597 11.315308 -0.14926147 24.528198 -11.464569 29.51181l0 0c-11.315315 4.983612 -24.528206 -0.14926147 -29.511818 -11.464569z" fill-rule="evenodd"/><path fill="#000000" fill-opacity="0.0" d="m153.26096 178.47627l-22.771652 31.370087" fill-rule="evenodd"/><path stroke="#000000" stroke-width="4.0" stroke-linejoin="round" stroke-linecap="butt" d="m153.26096 178.47627l-22.771652 31.370087" fill-rule="evenodd"/><path fill="#fce5cd" d="m194.53047 223.08884l0 0c4.2182465 -11.611023 17.0504 -17.604065 28.661423 -13.3858185l0 0c5.5758057 2.0256653 10.118561 6.1833496 12.628891 11.558411c2.5103302 5.375061 2.782608 11.527191 0.7569275 17.102997l0 0c-4.218231 11.611038 -17.050385 17.604065 -28.661407 13.385834l0 0c-11.611023 -4.218231 -17.604065 -17.050385 -13.385834 -28.661423z" fill-rule="evenodd"/><path stroke="#000000" stroke-width="1.0" stroke-linejoin="round" stroke-linecap="butt" d="m194.53047 223.08884l0 0c4.2182465 -11.611023 17.0504 -17.604065 28.661423 -13.3858185l0 0c5.5758057 2.0256653 10.118561 6.1833496 12.628891 11.558411c2.5103302 5.375061 2.782608 11.527191 0.7569275 17.102997l0 0c-4.218231 11.611038 -17.050385 17.604065 -28.661407 13.385834l0 0c-11.611023 -4.218231 -17.604065 -17.050385 -13.385834 -28.661423z" fill-rule="evenodd"/><path fill="#000000" fill-opacity="0.0" d="m184.93044 178.47627l21.16536 31.968506" fill-rule="evenodd"/><path stroke="#000000" stroke-width="4.0" stroke-linejoin="round" stroke-linecap="butt" d="m184.93044 178.47627l21.16536 31.968506" fill-rule="evenodd"/><path fill="#ffffff" d="m100.00287 230.83145l0 0c0 -12.367691 10.026001 -22.393692 22.3937 -22.393692l0 0c5.939171 0 11.635109 2.3593292 15.83474 6.55896c4.1996307 4.1996307 6.55896 9.895554 6.55896 15.834732l0 0c0 12.367706 -10.026001 22.393707 -22.3937 22.393707l0 0c-12.367699 0 -22.3937 -10.026001 -22.3937 -22.393707z" fill-rule="evenodd"/><path stroke="#000000" stroke-width="1.0" stroke-linejoin="round" stroke-linecap="butt" d="m100.00287 230.83145l0 0c0 -12.367691 10.026001 -22.393692 22.3937 -22.393692l0 0c5.939171 0 11.635109 2.3593292 15.83474 6.55896c4.1996307 4.1996307 6.55896 9.895554 6.55896 15.834732l0 0c0 12.367706 -10.026001 22.393707 -22.3937 22.393707l0 0c-12.367699 0 -22.3937 -10.026001 -22.3937 -22.393707z" fill-rule="evenodd"/><path fill="#fce5cd" d="m55.191612 307.93713l0 0c-4.9836082 -11.315308 0.14925385 -24.528198 11.464569 -29.51181l0 0c5.4337997 -2.393219 11.595757 -2.5298462 17.130295 -0.37982178c5.5345383 2.1500244 9.988304 6.4105835 12.3815155 11.844391l0 0c4.9836044 11.315308 -0.14925385 24.528198 -11.464569 29.51181l0 0c-11.315315 4.983612 -24.528202 -0.14926147 -29.51181 -11.464569z" fill-rule="evenodd"/><path stroke="#000000" stroke-width="1.0" stroke-linejoin="round" stroke-linecap="butt" d="m55.191612 307.93713l0 0c-4.9836082 -11.315308 0.14925385 -24.528198 11.464569 -29.51181l0 0c5.4337997 -2.393219 11.595757 -2.5298462 17.130295 -0.37982178c5.5345383 2.1500244 9.988304 6.4105835 12.3815155 11.844391l0 0c4.9836044 11.315308 -0.14925385 24.528198 -11.464569 29.51181l0 0c-11.315315 4.983612 -24.528202 -0.14926147 -29.51181 -11.464569z" fill-rule="evenodd"/><path fill="#000000" fill-opacity="0.0" d="m106.56183 246.6662l-22.771652 31.370087" fill-rule="evenodd"/><path stroke="#000000" stroke-width="4.0" stroke-linejoin="round" stroke-linecap="butt" d="m106.56183 246.6662l-22.771652 31.370087" fill-rule="evenodd"/><path fill="#fce5cd" d="m147.83134 291.27875l0 0c4.218231 -11.611023 17.050385 -17.604065 28.661423 -13.385803l0 0c5.5758057 2.0256653 10.118546 6.1833496 12.628876 11.558411c2.5103302 5.375061 2.782608 11.527191 0.75694275 17.102997l0 0c-4.218231 11.611023 -17.050385 17.604065 -28.661407 13.385834l0 0c-11.611038 -4.218231 -17.604065 -17.050385 -13.385834 -28.661438z" fill-rule="evenodd"/><path stroke="#000000" stroke-width="1.0" stroke-linejoin="round" stroke-linecap="butt" d="m147.83134 291.27875l0 0c4.218231 -11.611023 17.050385 -17.604065 28.661423 -13.385803l0 0c5.5758057 2.0256653 10.118546 6.1833496 12.628876 11.558411c2.5103302 5.375061 2.782608 11.527191 0.75694275 17.102997l0 0c-4.218231 11.611023 -17.050385 17.604065 -28.661407 13.385834l0 0c-11.611038 -4.218231 -17.604065 -17.050385 -13.385834 -28.661438z" fill-rule="evenodd"/><path fill="#000000" fill-opacity="0.0" d="m138.23131 246.6662l21.165344 31.968506" fill-rule="evenodd"/><path stroke="#000000" stroke-width="4.0" stroke-linejoin="round" stroke-linecap="butt" d="m138.23131 246.6662l21.165344 31.968506" fill-rule="evenodd"/><path fill="#000000" fill-opacity="0.0" d="m13.92126 74.00525l31.181103 0l0 42.015747l-31.181103 0z" fill-rule="evenodd"/><path fill="#000000" d="m22.890009 100.92525l5.125 -13.359375l1.90625 0l5.468752 13.359375l-2.015625 0l-1.5468769 -4.046875l-5.59375 0l-1.46875 4.046875l-1.875 0zm3.859375 -5.484375l4.53125 0l-1.40625 -3.703125q-0.625 -1.6875 -0.9375 -2.765625q-0.265625 1.28125 -0.71875 2.546875l-1.46875 3.921875z" fill-rule="nonzero"/><path fill="#000000" fill-opacity="0.0" d="m60.089237 141.63255l31.181103 0l0 42.015747l-31.181103 0z" fill-rule="evenodd"/><path fill="#000000" d="m70.448616 168.55255l0 -13.359375l5.015625 0q1.53125 0 2.453125 0.40625q0.921875 0.40625 1.4375 1.25q0.53125 0.84375 0.53125 1.765625q0 0.859375 -0.46875 1.625q-0.453125 0.75 -1.390625 1.203125q1.203125 0.359375 1.859375 1.21875q0.65625 0.859375 0.65625 2.015625q0 0.9375 -0.40625 1.75q-0.390625 0.796875 -0.984375 1.234375q-0.578125 0.4375 -1.453125 0.671875q-0.875 0.21875 -2.15625 0.21875l-5.09375 0zm1.78125 -7.75l2.875 0q1.1875 0 1.6875 -0.140625q0.671875 -0.203125 1.015625 -0.671875q0.34375 -0.46875 0.34375 -1.171875q0 -0.65625 -0.328125 -1.15625q-0.3125 -0.515625 -0.90625 -0.703125q-0.59375 -0.1875 -2.03125 -0.1875l-2.65625 0l0 4.03125zm0 6.171875l3.3125 0q0.859375 0 1.203125 -0.0625q0.609375 -0.109375 1.015625 -0.359375q0.421875 -0.265625 0.6875 -0.75q0.265625 -0.484375 0.265625 -1.125q0 -0.75 -0.390625 -1.296875q-0.375 -0.546875 -1.0625 -0.765625q-0.671875 -0.234375 -1.953125 -0.234375l-3.078125 0l0 4.59375z" fill-rule="nonzero"/><path fill="#000000" fill-opacity="0.0" d="m60.089237 277.90814l31.181103 0l0 42.015747l-31.181103 0z" fill-rule="evenodd"/><path fill="#000000" d="m80.05799 300.14062l1.765625 0.453125q-0.5625 2.171875 -2.0 3.328125q-1.4375 1.140625 -3.53125 1.140625q-2.15625 0 -3.515625 -0.875q-1.34375 -0.890625 -2.0625 -2.546875q-0.703125 -1.671875 -0.703125 -3.59375q0 -2.078125 0.796875 -3.625q0.796875 -1.5625 2.265625 -2.359375q1.484375 -0.8125 3.25 -0.8125q2.0 0 3.359375 1.015625q1.375 1.015625 1.90625 2.875l-1.734375 0.40625q-0.46875 -1.453125 -1.359375 -2.109375q-0.875 -0.671875 -2.203125 -0.671875q-1.546875 0 -2.578125 0.734375q-1.03125 0.734375 -1.453125 1.984375q-0.421875 1.234375 -0.421875 2.5625q0 1.703125 0.5 2.96875q0.5 1.265625 1.546875 1.90625q1.046875 0.625 2.265625 0.625q1.484375 0 2.515625 -0.859375q1.03125 -0.859375 1.390625 -2.546875z" fill-rule="nonzero"/><path fill="#000000" fill-opacity="0.0" d="m199.96326 209.82414l31.181107 0l0 42.015747l-31.181107 0z" fill-rule="evenodd"/><path fill="#000000" d="m210.432 236.74414l0 -13.359375l9.65625 0l0 1.578125l-7.875 0l0 4.09375l7.375 0l0 1.5625l-7.375 0l0 4.546875l8.1875 0l0 1.578125l-9.96875 0z" fill-rule="nonzero"/><path fill="#000000" fill-opacity="0.0" d="m153.50394 277.90814l31.181107 0l0 42.015747l-31.181107 0z" fill-rule="evenodd"/><path fill="#000000" d="m163.94144 304.82812l0 -13.359375l4.609375 0q1.546875 0 2.375 0.203125q1.140625 0.25 1.953125 0.953125q1.0625 0.890625 1.578125 2.28125q0.53125 1.390625 0.53125 3.171875q0 1.515625 -0.359375 2.703125q-0.359375 1.171875 -0.921875 1.9375q-0.546875 0.765625 -1.203125 1.21875q-0.65625 0.4375 -1.59375 0.671875q-0.9375 0.21875 -2.140625 0.21875l-4.828125 0zm1.765625 -1.578125l2.859375 0q1.3125 0 2.0625 -0.234375q0.75 -0.25 1.203125 -0.703125q0.625 -0.625 0.96875 -1.6875q0.359375 -1.0625 0.359375 -2.578125q0 -2.09375 -0.6875 -3.21875q-0.6875 -1.125 -1.671875 -1.5q-0.703125 -0.28125 -2.28125 -0.28125l-2.8125 0l0 10.203125z" fill-rule="nonzero"/><path fill="#000000" fill-opacity="0.0" d="m102.750656 27.490814l33.669296 0l0 42.015747l-33.669296 0z" fill-rule="evenodd"/><path fill="#000000" d="m117.344406 54.629562q-1.328125 0 -2.28125 -0.734375q-0.9375 -0.734375 -1.46875 -2.109375q-0.515625 -1.390625 -0.515625 -3.359375q0 -3.015625 1.140625 -4.578125q1.15625 -1.5625 3.125 -1.5625q2.0 0 3.140625 1.5625q1.140625 1.5625 1.140625 4.578125q0 1.96875 -0.515625 3.359375q-0.515625 1.375 -1.484375 2.109375q-0.953125 0.734375 -2.28125 0.734375zm0 -1.21875q0.84375 0 1.46875 -0.53125q0.640625 -0.546875 1.0 -1.65625q0.375 -1.109375 0.375 -2.796875q0 -1.71875 -0.375 -2.796875q-0.359375 -1.09375 -1.0 -1.59375q-0.625 -0.515625 -1.46875 -0.515625q-0.8125 0 -1.46875 0.515625q-0.640625 0.5 -1.0 1.59375q-0.359375 1.078125 -0.359375 2.796875q0 1.6875 0.359375 2.796875q0.359375 1.109375 1.0 1.65625q0.65625 0.53125 1.46875 0.53125zm0 -3.875q-0.46875 0 -0.8125 -0.328125q-0.34375 -0.34375 -0.34375 -0.921875q0 -0.578125 0.34375 -0.890625q0.34375 -0.328125 0.8125 -0.328125q0.484375 0 0.8125 0.328125q0.34375 0.3125 0.34375 0.890625q0 0.578125 -0.34375 0.921875q-0.328125 0.328125 -0.8125 0.328125z" fill-rule="nonzero"/><path fill="#000000" fill-opacity="0.0" d="m145.24934 96.1706l33.669296 0l0 42.015755l-33.669296 0z" fill-rule="evenodd"/><path fill="#000000" d="m159.8431 123.30935q-1.328125 0 -2.28125 -0.734375q-0.9375 -0.734375 -1.46875 -2.109375q-0.515625 -1.390625 -0.515625 -3.359375q0 -3.015625 1.140625 -4.578125q1.15625 -1.5625 3.125 -1.5625q2.0 0 3.140625 1.5625q1.140625 1.5625 1.140625 4.578125q0 1.96875 -0.515625 3.359375q-0.515625 1.375 -1.484375 2.109375q-0.953125 0.734375 -2.28125 0.734375zm0 -1.21875q0.84375 0 1.46875 -0.53125q0.640625 -0.546875 1.0 -1.65625q0.375 -1.109375 0.375 -2.796875q0 -1.71875 -0.375 -2.796875q-0.359375 -1.09375 -1.0 -1.59375q-0.625 -0.515625 -1.46875 -0.515625q-0.8125 0 -1.46875 0.515625q-0.640625 0.5 -1.0 1.59375q-0.359375 1.078125 -0.359375 2.796875q0 1.6875 0.359375 2.796875q0.359375 1.109375 1.0 1.65625q0.65625 0.53125 1.46875 0.53125zm0 -3.875q-0.46875 0 -0.8125 -0.328125q-0.34375 -0.34375 -0.34375 -0.921875q0 -0.578125 0.34375 -0.890625q0.34375 -0.328125 0.8125 -0.328125q0.484375 0 0.8125 0.328125q0.34375 0.3125 0.34375 0.890625q0 0.578125 -0.34375 0.921875q-0.328125 0.328125 -0.8125 0.328125z" fill-rule="nonzero"/><path fill="#000000" fill-opacity="0.0" d="m192.47769 162.7454l33.669296 0l0 42.015747l-33.669296 0z" fill-rule="evenodd"/><path fill="#000000" d="m207.07144 189.88416q-1.328125 0 -2.28125 -0.734375q-0.9375 -0.734375 -1.46875 -2.109375q-0.515625 -1.390625 -0.515625 -3.359375q0 -3.015625 1.140625 -4.578125q1.15625 -1.5625 3.125 -1.5625q2.0 0 3.140625 1.5625q1.140625 1.5625 1.140625 4.578125q0 1.96875 -0.515625 3.359375q-0.515625 1.375 -1.484375 2.109375q-0.953125 0.734375 -2.28125 0.734375zm0 -1.21875q0.84375 0 1.46875 -0.53125q0.640625 -0.546875 1.0 -1.65625q0.375 -1.109375 0.375 -2.796875q0 -1.71875 -0.375 -2.796875q-0.359375 -1.09375 -1.0 -1.59375q-0.625 -0.515625 -1.46875 -0.515625q-0.8125 0 -1.46875 0.515625q-0.640625 0.5 -1.0 1.59375q-0.359375 1.078125 -0.359375 2.796875q0 1.6875 0.359375 2.796875q0.359375 1.109375 1.0 1.65625q0.65625 0.53125 1.46875 0.53125zm0 -3.875q-0.46875 0 -0.8125 -0.328125q-0.34375 -0.34375 -0.34375 -0.921875q0 -0.578125 0.34375 -0.890625q0.34375 -0.328125 0.8125 -0.328125q0.484375 0 0.8125 0.328125q0.34375 0.3125 0.34375 0.890625q0 0.578125 -0.34375 0.921875q-0.328125 0.328125 -0.8125 0.328125z" fill-rule="nonzero"/><path fill="#000000" fill-opacity="0.0" d="m149.00656 234.2546l33.669296 0l0 42.015762l-33.669296 0z" fill-rule="evenodd"/><path fill="#000000" d="m163.60031 261.39334q-1.328125 0 -2.28125 -0.734375q-0.9375 -0.734375 -1.46875 -2.109375q-0.515625 -1.390625 -0.515625 -3.359375q0 -3.015625 1.140625 -4.578125q1.15625 -1.5625 3.125 -1.5625q2.0 0 3.140625 1.5625q1.140625 1.5625 1.140625 4.578125q0 1.96875 -0.515625 3.359375q-0.515625 1.375 -1.484375 2.109375q-0.953125 0.734375 -2.28125 0.734375zm0 -1.21875q0.84375 0 1.46875 -0.53125q0.640625 -0.546875 1.0 -1.65625q0.375 -1.109375 0.375 -2.796875q0 -1.71875 -0.375 -2.796875q-0.359375 -1.09375 -1.0 -1.59375q-0.625 -0.515625 -1.46875 -0.515625q-0.8125 0 -1.46875 0.515625q-0.640625 0.5 -1.0 1.59375q-0.359375 1.078125 -0.359375 2.796875q0 1.6875 0.359375 2.796875q0.359375 1.109375 1.0 1.65625q0.65625 0.53125 1.46875 0.53125zm0 -3.875q-0.46875 0 -0.8125 -0.328125q-0.34375 -0.34375 -0.34375 -0.921875q0 -0.578125 0.34375 -0.890625q0.34375 -0.328125 0.8125 -0.328125q0.484375 0 0.8125 0.328125q0.34375 0.3125 0.34375 0.890625q0 0.578125 -0.34375 0.921875q-0.328125 0.328125 -0.8125 0.328125z" fill-rule="nonzero"/><path fill="#000000" fill-opacity="0.0" d="m66.333336 232.53543l33.66929 0l0 42.015747l-33.66929 0z" fill-rule="evenodd"/><path fill="#000000" d="m77.145836 259.45544l0 -1.265625l3.4375 0l0 -8.76564l-2.671875 0l0 -1.0q0.703125 -0.09375 1.234375 -0.21875q0.546875 -0.125 1.0 -0.28125q0.453125 -0.171875 0.828125 -0.375l1.125 0l0 10.64064l3.125 0l0 1.265625l-8.078125 0z" fill-rule="nonzero"/><path fill="#000000" fill-opacity="0.0" d="m115.338585 162.7454l33.66929 0l0 42.015747l-33.66929 0z" fill-rule="evenodd"/><path fill="#000000" d="m126.151085 189.6654l0 -1.265625l3.4374924 0l0 -8.765625l-2.6718674 0l0 -1.0q0.703125 -0.09375 1.2343674 -0.21875q0.546875 -0.125 1.0 -0.28125q0.453125 -0.171875 0.828125 -0.375l1.125 0l0 10.640625l3.125 0l0 1.265625l-8.078117 0z" fill-rule="nonzero"/><path fill="#000000" fill-opacity="0.0" d="m69.08137 96.1706l33.66929 0l0 42.015755l-33.66929 0z" fill-rule="evenodd"/><path fill="#000000" d="m79.89387 123.0906l0 -1.265625l3.4375 0l0 -8.765625l-2.671875 0l0 -1.0q0.703125 -0.09375 1.234375 -0.21875q0.546875 -0.125 1.0 -0.28125q0.453125 -0.171875 0.828125 -0.375l1.125 0l0 10.640625l3.125 0l0 1.265625l-8.078125 0z" fill-rule="nonzero"/><path fill="#000000" fill-opacity="0.0" d="m22.228346 25.774279l33.66929 0l0 42.015747l-33.66929 0z" fill-rule="evenodd"/><path fill="#000000" d="m33.040848 52.694275l0 -1.265625l3.4375 0l0 -8.765625l-2.671875 0l0 -1.0q0.703125 -0.09375 1.234375 -0.21875q0.546875 -0.125 1.0 -0.28125q0.453125 -0.171875 0.828125 -0.375l1.125 0l0 10.640625l3.125 0l0 1.265625l-8.078125 0z" fill-rule="nonzero"/></g></svg>