<svg version="1.1" viewBox="0.0 0.0 353.95800524934384 512.2309711286089" fill="none" stroke="none" stroke-linecap="square" stroke-miterlimit="10" xmlns:xlink="http://www.w3.org/1999/xlink" xmlns="http://www.w3.org/2000/svg"><clipPath id="p.0"><path d="m0 0l353.958 0l0 512.23096l-353.958 0l0 -512.23096z" clip-rule="nonzero"/></clipPath><g clip-path="url(#p.0)"><path fill="#000000" fill-opacity="0.0" d="m0 0l353.958 0l0 512.23096l-353.958 0z" fill-rule="evenodd"/><path fill="#fce5cd" d="m76.62992 62.795815l0 0c-6.966614 -15.820568 0.23913574 -34.307327 16.09449 -41.29134l0 0c7.614006 -3.3538399 16.245155 -3.5522976 23.99469 -0.55171585c7.7495346 3.0005817 13.982651 8.954412 17.32814 16.551716l0 0c6.966614 15.820568 -0.23913574 34.30733 -16.094482 41.29134l0 0c-15.855362 6.984009 -34.356224 -0.17943573 -41.322838 -16.0z" fill-rule="evenodd"/><path stroke="#000000" stroke-width="1.0" stroke-linejoin="round" stroke-linecap="butt" d="m76.62992 62.795815l0 0c-6.966614 -15.820568 0.23913574 -34.307327 16.09449 -41.29134l0 0c7.614006 -3.3538399 16.245155 -3.5522976 23.99469 -0.55171585c7.7495346 3.0005817 13.982651 8.954412 17.32814 16.551716l0 0c6.966614 15.820568 -0.23913574 34.30733 -16.094482 41.29134l0 0c-15.855362 6.984009 -34.356224 -0.17943573 -41.322838 -16.0z" fill-rule="evenodd"/><path fill="#000000" fill-opacity="0.0" d="m76.35696 29.141733l71.496056 0l0 42.015747l-71.496056 0z" fill-rule="evenodd"/><path fill="#000000" d="m92.90383 54.87423q-0.921875 0.765625 -1.765625 1.09375q-0.828125 0.3125 -1.796875 0.3125q-1.59375 0 -2.453125 -0.78125q-0.859375 -0.78125 -0.859375 -1.984375q0 -0.71875 0.328125 -1.296875q0.328125 -0.59375 0.84375 -0.9375q0.53125 -0.359375 1.1875 -0.546875q0.46875 -0.125 1.453125 -0.25q1.984375 -0.234375 2.921875 -0.5625q0.015625 -0.34375 0.015625 -0.421875q0 -1.0 -0.46875 -1.421875q-0.625 -0.546875 -1.875 -0.546875q-1.15625 0 -1.703125 0.40625q-0.546875 0.40625 -0.8125 1.421875l-1.609375 -0.21875q0.21875 -1.015625 0.71875 -1.640625q0.5 -0.640625 1.453125 -0.984375q0.953125 -0.34375 2.1875 -0.34375q1.25 0 2.015625 0.296875q0.78125 0.28125 1.140625 0.734375q0.375 0.4375 0.515625 1.109375q0.078125 0.421875 0.078125 1.515625l0 2.1875q0 2.28125 0.109375 2.890625q0.109375 0.59375 0.40625 1.15625l-1.703125 0q-0.265625 -0.515625 -0.328125 -1.1875zm-0.140625 -3.671875q-0.890625 0.375 -2.671875 0.625q-1.015625 0.140625 -1.4375 0.328125q-0.421875 0.1875 -0.65625 0.53125q-0.21875 0.34375 -0.21875 0.78125q0 0.65625 0.5 1.09375q0.5 0.4375 1.453125 0.4375q0.9375 0 1.671875 -0.40625q0.75 -0.421875 1.09375 -1.140625q0.265625 -0.5625 0.265625 -1.640625l0 -0.609375zm9.840271 -2.953125l0 -1.859375l1.859375 0l0 1.859375l-1.859375 0zm0 7.8125l0 -1.875l1.859375 0l0 1.875l-1.859375 0zm9.460358 -3.53125l1.640625 -0.21875q0.28125 1.40625 0.953125 2.015625q0.6875 0.609375 1.65625 0.609375q1.15625 0 1.953125 -0.796875q0.796875 -0.796875 0.796875 -1.984375q0 -1.125 -0.734375 -1.859375q-0.734375 -0.734375 -1.875 -0.734375q-0.46875 0 -1.15625 0.171875l0.1875 -1.4375q0.15625 0.015625 0.265625 0.015625q1.046875 0 1.875 -0.546875q0.84375 -0.546875 0.84375 -1.671875q0 -0.90625 -0.609375 -1.5q-0.609375 -0.59375 -1.578125 -0.59375q-0.953125 0 -1.59375 0.609375q-0.640625 0.59375 -0.8125 1.796875l-1.640625 -0.296875q0.296875 -1.640625 1.359375 -2.546875q1.0625 -0.90625 2.65625 -0.90625q1.09375 0 2.0 0.46875q0.921875 0.46875 1.40625 1.28125q0.5 0.8125 0.5 1.71875q0 0.859375 -0.46875 1.578125q-0.46875 0.703125 -1.375 1.125q1.1875 0.28125 1.84375 1.140625q0.65625 0.859375 0.65625 2.15625q0 1.734375 -1.28125 2.953125q-1.265625 1.21875 -3.21875 1.21875q-1.765625 0 -2.921875 -1.046875q-1.15625 -1.046875 -1.328125 -2.71875z" fill-rule="nonzero"/><path fill="#fce5cd" d="m183.97638 62.795815l0 0c-6.966614 -15.820568 0.23913574 -34.307327 16.094482 -41.29134l0 0c7.6140137 -3.3538399 16.245163 -3.5522976 23.994705 -0.55171585c7.749527 3.0005817 13.982651 8.954412 17.32814 16.551716l0 0c6.966614 15.820568 -0.23913574 34.30733 -16.094498 41.29134l0 0c-15.855347 6.984009 -34.356216 -0.17943573 -41.32283 -16.0z" fill-rule="evenodd"/><path stroke="#000000" stroke-width="1.0" stroke-linejoin="round" stroke-linecap="butt" d="m183.97638 62.795815l0 0c-6.966614 -15.820568 0.23913574 -34.307327 16.094482 -41.29134l0 0c7.6140137 -3.3538399 16.245163 -3.5522976 23.994705 -0.55171585c7.749527 3.0005817 13.982651 8.954412 17.32814 16.551716l0 0c6.966614 15.820568 -0.23913574 34.30733 -16.094498 41.29134l0 0c-15.855347 6.984009 -34.356216 -0.17943573 -41.32283 -16.0z" fill-rule="evenodd"/><path fill="#000000" fill-opacity="0.0" d="m183.70341 29.141733l71.49606 0l0 42.015747l-71.49606 0z" fill-rule="evenodd"/><path fill="#000000" d="m195.43779 56.06173l-1.515625 0l0 -13.359375l1.640625 0l0 4.765625q1.046875 -1.296875 2.65625 -1.296875q0.890625 0 1.6875 0.359375q0.796875 0.359375 1.3125 1.015625q0.515625 0.640625 0.796875 1.5625q0.296875 0.921875 0.296875 1.96875q0 2.484375 -1.234375 3.84375q-1.21875 1.359375 -2.953125 1.359375q-1.703125 0 -2.6875 -1.4375l0 1.21875zm-0.015625 -4.90625q0 1.734375 0.484375 2.515625q0.765625 1.265625 2.09375 1.265625q1.078125 0 1.859375 -0.9375q0.78125 -0.9375 0.78125 -2.78125q0 -1.890625 -0.75 -2.796875q-0.75 -0.90625 -1.828125 -0.90625q-1.0625 0 -1.859375 0.9375q-0.78125 0.9375 -0.78125 2.703125zm14.527771 -2.90625l0 -1.859375l1.859375 0l0 1.859375l-1.859375 0zm0 7.8125l0 -1.875l1.859375 0l0 1.875l-1.859375 0zm15.632233 0l-1.640625 0l0 -10.453125q-0.59375 0.5625 -1.5625 1.140625q-0.953125 0.5625 -1.71875 0.84375l0 -1.59375q1.375 -0.640625 2.40625 -1.5625q1.03125 -0.921875 1.453125 -1.78125l1.0625 0l0 13.40625z" fill-rule="nonzero"/><path fill="#fce5cd" d="m290.13123 62.795815l0 0c-6.966614 -15.820568 0.23913574 -34.307327 16.094482 -41.29134l0 0c7.6140137 -3.3538399 16.245178 -3.5522976 23.99472 -0.55171585c7.7495117 3.0005817 13.9826355 8.954412 17.328125 16.551716l0 0c6.966614 15.820568 -0.23913574 34.30733 -16.094482 41.29134l0 0c-15.855347 6.984009 -34.35623 -0.17943573 -41.322845 -16.0z" fill-rule="evenodd"/><path stroke="#000000" stroke-width="1.0" stroke-linejoin="round" stroke-linecap="butt" d="m290.13123 62.795815l0 0c-6.966614 -15.820568 0.23913574 -34.307327 16.094482 -41.29134l0 0c7.6140137 -3.3538399 16.245178 -3.5522976 23.99472 -0.55171585c7.7495117 3.0005817 13.9826355 8.954412 17.328125 16.551716l0 0c6.966614 15.820568 -0.23913574 34.30733 -16.094482 41.29134l0 0c-15.855347 6.984009 -34.35623 -0.17943573 -41.322845 -16.0z" fill-rule="evenodd"/><path fill="#000000" fill-opacity="0.0" d="m289.85828 29.141733l71.49606 0l0 42.015747l-71.49606 0z" fill-rule="evenodd"/><path fill="#000000" d="m306.40515 52.514854l1.609375 0.21875q-0.265625 1.65625 -1.359375 2.609375q-1.078125 0.9375 -2.671875 0.9375q-1.984375 0 -3.1875 -1.296875q-1.203125 -1.296875 -1.203125 -3.71875q0 -1.578125 0.515625 -2.75q0.515625 -1.171875 1.578125 -1.75q1.0625 -0.59375 2.3125 -0.59375q1.578125 0 2.578125 0.796875q1.0 0.796875 1.28125 2.265625l-1.59375 0.234375q-0.234375 -0.96875 -0.8125 -1.453125q-0.578125 -0.5 -1.390625 -0.5q-1.234375 0 -2.015625 0.890625q-0.78125 0.890625 -0.78125 2.8125q0 1.953125 0.75 2.84375q0.75 0.875 1.953125 0.875q0.96875 0 1.609375 -0.59375q0.65625 -0.59375 0.828125 -1.828125zm8.652039 -4.265625l0 -1.859375l1.859375 0l0 1.859375l-1.859375 0zm0 7.8125l0 -1.875l1.859375 0l0 1.875l-1.859375 0zm15.632233 0l-1.640625 0l0 -10.453125q-0.59375 0.5625 -1.5625 1.140625q-0.953125 0.5625 -1.71875 0.84375l0 -1.59375q1.375 -0.640625 2.40625 -1.5625q1.03125 -0.921875 1.453125 -1.78125l1.0625 0l0 13.40625z" fill-rule="nonzero"/><path fill="#fce5cd" d="m79.64304 157.7092l0 0c-6.966614 -15.820572 0.23913574 -34.307327 16.09449 -41.291336l0 0c7.614006 -3.3538437 16.245163 -3.5522995 23.994698 -0.55171967c7.7495346 3.0005875 13.982643 8.954414 17.328133 16.55172l0 0c6.966614 15.820572 -0.23913574 34.307327 -16.094482 41.291336l0 0c-15.855354 6.984009 -34.356224 -0.1794281 -41.322838 -16.0z" fill-rule="evenodd"/><path stroke="#000000" stroke-width="1.0" stroke-linejoin="round" stroke-linecap="butt" d="m79.64304 157.7092l0 0c-6.966614 -15.820572 0.23913574 -34.307327 16.09449 -41.291336l0 0c7.614006 -3.3538437 16.245163 -3.5522995 23.994698 -0.55171967c7.7495346 3.0005875 13.982643 8.954414 17.328133 16.55172l0 0c6.966614 15.820572 -0.23913574 34.307327 -16.094482 41.291336l0 0c-15.855354 6.984009 -34.356224 -0.1794281 -41.322838 -16.0z" fill-rule="evenodd"/><path fill="#000000" fill-opacity="0.0" d="m79.37008 124.055115l71.496056 0l0 42.015747l-71.496056 0z" fill-rule="evenodd"/><path fill="#000000" d="m95.916954 149.78761q-0.921875 0.765625 -1.765625 1.09375q-0.828125 0.3125 -1.796875 0.3125q-1.59375 0 -2.453125 -0.78125q-0.859375 -0.78125 -0.859375 -1.984375q0 -0.71875 0.328125 -1.296875q0.328125 -0.59375 0.84375 -0.9375q0.53125 -0.359375 1.1875 -0.546875q0.46875 -0.125 1.453125 -0.25q1.984375 -0.234375 2.921875 -0.5625q0.015625 -0.34375 0.015625 -0.421875q0 -1.0 -0.46875 -1.421875q-0.625 -0.546875 -1.875 -0.546875q-1.15625 0 -1.703125 0.40625q-0.546875 0.40625 -0.8125 1.421875l-1.609375 -0.21875q0.21875 -1.015625 0.71875 -1.640625q0.5 -0.640625 1.453125 -0.984375q0.953125 -0.34375 2.1875 -0.34375q1.25 0 2.015625 0.296875q0.78125 0.28125 1.140625 0.734375q0.375 0.4375 0.515625 1.109375q0.078125 0.421875 0.078125 1.515625l0 2.1875q0 2.28125 0.109375 2.890625q0.109375 0.59375 0.40625 1.15625l-1.703125 0q-0.265625 -0.515625 -0.328125 -1.1875zm-0.140625 -3.671875q-0.890625 0.375 -2.671875 0.625q-1.015625 0.140625 -1.4375 0.328125q-0.421875 0.1875 -0.65625 0.53125q-0.21875 0.34375 -0.21875 0.78125q0 0.65625 0.5 1.09375q0.5 0.4375 1.453125 0.4375q0.9375 0 1.671875 -0.40625q0.75 -0.421875 1.09375 -1.140625q0.265625 -0.5625 0.265625 -1.640625l0 -0.609375zm9.840271 -2.953125l0 -1.859375l1.859375 0l0 1.859375l-1.859375 0zm0 7.8125l0 -1.875l1.859375 0l0 1.875l-1.859375 0zm9.460358 -3.53125l1.640625 -0.21875q0.28125 1.40625 0.953125 2.015625q0.6875 0.609375 1.65625 0.609375q1.15625 0 1.953125 -0.796875q0.796875 -0.796875 0.796875 -1.984375q0 -1.125 -0.734375 -1.859375q-0.734375 -0.734375 -1.875 -0.734375q-0.46875 0 -1.15625 0.171875l0.1875 -1.4375q0.15625 0.015625 0.265625 0.015625q1.046875 0 1.875 -0.546875q0.84375 -0.546875 0.84375 -1.671875q0 -0.90625 -0.609375 -1.5q-0.609375 -0.59375 -1.578125 -0.59375q-0.953125 0 -1.59375 0.609375q-0.640625 0.59375 -0.8125 1.796875l-1.640625 -0.296875q0.296875 -1.640625 1.359375 -2.546875q1.0625 -0.90625 2.65625 -0.90625q1.09375 0 2.0 0.46875q0.921875 0.46875 1.40625 1.28125q0.5 0.8125 0.5 1.71875q0 0.859375 -0.46875 1.578125q-0.46875 0.703125 -1.375 1.125q1.1875 0.28125 1.84375 1.140625q0.65625 0.859375 0.65625 2.15625q0 1.734375 -1.28125 2.953125q-1.265625 1.21875 -3.21875 1.21875q-1.765625 0 -2.921875 -1.046875q-1.15625 -1.046875 -1.328125 -2.71875z" fill-rule="nonzero"/><path fill="#ffffff" d="m228.39131 145.2186l0 0c0 -12.367706 10.026001 -22.393707 22.393707 -22.393707l0 0c5.9391937 0 11.635117 2.3593292 15.834732 6.55896c4.199646 4.199646 6.55896 9.895569 6.55896 15.834747l0 0c0 12.367691 -10.026001 22.393692 -22.393692 22.393692l0 0c-12.367706 0 -22.393707 -10.026001 -22.393707 -22.393692z" fill-rule="evenodd"/><path stroke="#000000" stroke-width="1.0" stroke-linejoin="round" stroke-linecap="butt" d="m228.39131 145.2186l0 0c0 -12.367706 10.026001 -22.393707 22.393707 -22.393707l0 0c5.9391937 0 11.635117 2.3593292 15.834732 6.55896c4.199646 4.199646 6.55896 9.895569 6.55896 15.834747l0 0c0 12.367691 -10.026001 22.393692 -22.393692 22.393692l0 0c-12.367706 0 -22.393707 -10.026001 -22.393707 -22.393692z" fill-rule="evenodd"/><path fill="#000000" fill-opacity="0.0" d="m234.95029 161.05333l-22.771652 31.370087" fill-rule="evenodd"/><path stroke="#000000" stroke-width="4.0" stroke-linejoin="round" stroke-linecap="butt" d="m234.95029 161.05333l-22.771652 31.370087" fill-rule="evenodd"/><path fill="#000000" fill-opacity="0.0" d="m266.61975 161.05333l21.165375 31.968506" fill-rule="evenodd"/><path stroke="#000000" stroke-width="4.0" stroke-linejoin="round" stroke-linecap="butt" d="m266.61975 161.05333l21.165375 31.968506" fill-rule="evenodd"/><path fill="#fce5cd" d="m269.40945 234.79843l0 0c-6.966614 -15.820557 0.23913574 -34.307327 16.094482 -41.291336l0 0c7.6140137 -3.353836 16.245148 -3.5522919 23.99469 -0.55171204c7.749542 3.0005798 13.982666 8.954407 17.328156 16.551712l0 0c6.966614 15.820572 -0.23913574 34.307327 -16.094513 41.291336l0 0c-15.855347 6.984009 -34.3562 -0.1794281 -41.322815 -16.0z" fill-rule="evenodd"/><path stroke="#000000" stroke-width="1.0" stroke-linejoin="round" stroke-linecap="butt" d="m269.40945 234.79843l0 0c-6.966614 -15.820557 0.23913574 -34.307327 16.094482 -41.291336l0 0c7.6140137 -3.353836 16.245148 -3.5522919 23.99469 -0.55171204c7.749542 3.0005798 13.982666 8.954407 17.328156 16.551712l0 0c6.966614 15.820572 -0.23913574 34.307327 -16.094513 41.291336l0 0c-15.855347 6.984009 -34.3562 -0.1794281 -41.322815 -16.0z" fill-rule="evenodd"/><path fill="#000000" fill-opacity="0.0" d="m269.13647 201.14436l71.49606 0l0 42.015747l-71.49606 0z" fill-rule="evenodd"/><path fill="#000000" d="m280.87085 228.06436l-1.515625 0l0 -13.359375l1.640625 0l0 4.765625q1.046875 -1.296875 2.65625 -1.296875q0.890625 0 1.6875 0.359375q0.796875 0.359375 1.3125 1.015625q0.515625 0.640625 0.796875 1.5625q0.296875 0.921875 0.296875 1.96875q0 2.484375 -1.234375 3.84375q-1.21875 1.359375 -2.953125 1.359375q-1.703125 0 -2.6875 -1.4375l0 1.21875zm-0.015625 -4.90625q0 1.734375 0.484375 2.515625q0.765625 1.265625 2.09375 1.265625q1.078125 0 1.859375 -0.9375q0.78125 -0.9375 0.78125 -2.78125q0 -1.890625 -0.75 -2.796875q-0.75 -0.90625 -1.828125 -0.90625q-1.0625 0 -1.859375 0.9375q-0.78125 0.9375 -0.78125 2.703125zm14.527771 -2.90625l0 -1.859375l1.859375 0l0 1.859375l-1.859375 0zm0 7.8125l0 -1.875l1.859375 0l0 1.875l-1.859375 0zm15.632233 0l-1.640625 0l0 -10.453125q-0.59375 0.5625 -1.5625 1.140625q-0.953125 0.5625 -1.71875 0.84375l0 -1.59375q1.375 -0.640625 2.40625 -1.5625q1.03125 -0.921875 1.453125 -1.78125l1.0625 0l0 13.40625z" fill-rule="nonzero"/><path fill="#fce5cd" d="m174.94226 234.79843l0 0c-6.966614 -15.820557 0.23913574 -34.307327 16.094482 -41.291336l0 0c7.6140137 -3.353836 16.245163 -3.5522919 23.99469 -0.55171204c7.749542 3.0005798 13.982666 8.954407 17.32814 16.551712l0 0c6.966629 15.820572 -0.23912048 34.307327 -16.094482 41.291336l0 0c-15.855362 6.984009 -34.356216 -0.1794281 -41.32283 -16.0z" fill-rule="evenodd"/><path stroke="#000000" stroke-width="1.0" stroke-linejoin="round" stroke-linecap="butt" d="m174.94226 234.79843l0 0c-6.966614 -15.820557 0.23913574 -34.307327 16.094482 -41.291336l0 0c7.6140137 -3.353836 16.245163 -3.5522919 23.99469 -0.55171204c7.749542 3.0005798 13.982666 8.954407 17.32814 16.551712l0 0c6.966629 15.820572 -0.23912048 34.307327 -16.094482 41.291336l0 0c-15.855362 6.984009 -34.356216 -0.1794281 -41.32283 -16.0z" fill-rule="evenodd"/><path fill="#000000" fill-opacity="0.0" d="m174.6693 201.14436l71.49606 0l0 42.015747l-71.49606 0z" fill-rule="evenodd"/><path fill="#000000" d="m191.21617 224.51749l1.609375 0.21875q-0.265625 1.65625 -1.359375 2.609375q-1.078125 0.9375 -2.671875 0.9375q-1.984375 0 -3.1875 -1.296875q-1.203125 -1.296875 -1.203125 -3.71875q0 -1.578125 0.515625 -2.75q0.515625 -1.171875 1.578125 -1.75q1.0625 -0.59375 2.3125 -0.59375q1.578125 0 2.578125 0.796875q1.0 0.796875 1.28125 2.265625l-1.59375 0.234375q-0.234375 -0.96875 -0.8125 -1.453125q-0.578125 -0.5 -1.390625 -0.5q-1.234375 0 -2.015625 0.890625q-0.78125 0.890625 -0.78125 2.8125q0 1.953125 0.75 2.84375q0.75 0.875 1.953125 0.875q0.96875 0 1.609375 -0.59375q0.65625 -0.59375 0.828125 -1.828125zm8.652054 -4.265625l0 -1.859375l1.859375 0l0 1.859375l-1.859375 0zm0 7.8125l0 -1.875l1.859375 0l0 1.875l-1.859375 0zm15.632233 0l-1.640625 0l0 -10.453125q-0.59375 0.5625 -1.5625 1.140625q-0.953125 0.5625 -1.71875 0.84375l0 -1.59375q1.375 -0.640625 2.40625 -1.5625q1.03125 -0.921875 1.453125 -1.78125l1.0625 0l0 13.40625z" fill-rule="nonzero"/><path fill="#000000" fill-opacity="0.0" d="m183.08661 192.29527l31.181107 0l0 42.015747l-31.181107 0z" fill-rule="evenodd"/><path fill="#ffffff" d="m219.4144 139.5806l0 0c0 -17.290436 14.044876 -31.30709 31.370087 -31.30709l0 0c8.319855 0 16.29895 3.2984161 22.182007 9.169632c5.883026 5.871216 9.18808 13.834297 9.18808 22.137459l0 0c0 17.29042 -14.044861 31.307083 -31.370087 31.307083l0 0c-17.32521 0 -31.370087 -14.016663 -31.370087 -31.307083z" fill-rule="evenodd"/><path stroke="#000000" stroke-width="1.0" stroke-linejoin="round" stroke-linecap="butt" d="m219.4144 139.5806l0 0c0 -17.290436 14.044876 -31.30709 31.370087 -31.30709l0 0c8.319855 0 16.29895 3.2984161 22.182007 9.169632c5.883026 5.871216 9.18808 13.834297 9.18808 22.137459l0 0c0 17.29042 -14.044861 31.307083 -31.370087 31.307083l0 0c-17.32521 0 -31.370087 -14.016663 -31.370087 -31.307083z" fill-rule="evenodd"/><path fill="#000000" d="m254.98724 144.92247l0 1.578125l-8.828125 0q-0.015625 -0.59375 0.1875 -1.140625q0.34375 -0.90625 1.078125 -1.78125q0.75 -0.875 2.15625 -2.015625q2.171875 -1.78125 2.9375 -2.828125q0.765625 -1.046875 0.765625 -1.96875q0 -0.984375 -0.703125 -1.640625q-0.6875 -0.671875 -1.8125 -0.671875q-1.1875 0 -1.90625 0.71875q-0.703125 0.703125 -0.703125 1.953125l-1.6875 -0.171875q0.171875 -1.890625 1.296875 -2.875q1.140625 -0.984375 3.03125 -0.984375q1.921875 0 3.046875 1.0625q1.125 1.0625 1.125 2.640625q0 0.796875 -0.328125 1.578125q-0.328125 0.78125 -1.09375 1.640625q-0.75 0.84375 -2.53125 2.34375q-1.46875 1.234375 -1.890625 1.6875q-0.421875 0.4375 -0.6875 0.875l6.546875 0z" fill-rule="nonzero"/><path fill="#ffffff" d="m152.02124 317.8485l0 0c0 -12.367706 10.026001 -22.393707 22.393707 -22.393707l0 0c5.9391785 0 11.635101 2.3593445 15.834732 6.55896c4.1996307 4.199646 6.55896 9.895569 6.55896 15.834747l0 0c0 12.367706 -10.026001 22.393707 -22.393692 22.393707l0 0c-12.367706 0 -22.393707 -10.026001 -22.393707 -22.393707z" fill-rule="evenodd"/><path stroke="#000000" stroke-width="1.0" stroke-linejoin="round" stroke-linecap="butt" d="m152.02124 317.8485l0 0c0 -12.367706 10.026001 -22.393707 22.393707 -22.393707l0 0c5.9391785 0 11.635101 2.3593445 15.834732 6.55896c4.1996307 4.199646 6.55896 9.895569 6.55896 15.834747l0 0c0 12.367706 -10.026001 22.393707 -22.393692 22.393707l0 0c-12.367706 0 -22.393707 -10.026001 -22.393707 -22.393707z" fill-rule="evenodd"/><path fill="#000000" fill-opacity="0.0" d="m158.5802 333.68326l-22.771652 31.370087" fill-rule="evenodd"/><path stroke="#000000" stroke-width="4.0" stroke-linejoin="round" stroke-linecap="butt" d="m158.5802 333.68326l-22.771652 31.370087" fill-rule="evenodd"/><path fill="#000000" fill-opacity="0.0" d="m190.24968 333.68326l21.16536 31.968506" fill-rule="evenodd"/><path stroke="#000000" stroke-width="4.0" stroke-linejoin="round" stroke-linecap="butt" d="m190.24968 333.68326l21.16536 31.968506" fill-rule="evenodd"/><path fill="#fce5cd" d="m193.03937 407.42834l0 0c-6.966614 -15.820557 0.23913574 -34.307312 16.094498 -41.29132l0 0c7.6139984 -3.3538513 16.245148 -3.5523071 23.99469 -0.5517273c7.749527 3.0005798 13.982651 8.954407 17.32814 16.551727l0 0c6.966614 15.820557 -0.23913574 34.307312 -16.094498 41.29132l0 0c-15.855347 6.9840393 -34.356216 -0.17941284 -41.32283 -16.0z" fill-rule="evenodd"/><path stroke="#000000" stroke-width="1.0" stroke-linejoin="round" stroke-linecap="butt" d="m193.03937 407.42834l0 0c-6.966614 -15.820557 0.23913574 -34.307312 16.094498 -41.29132l0 0c7.6139984 -3.3538513 16.245148 -3.5523071 23.99469 -0.5517273c7.749527 3.0005798 13.982651 8.954407 17.32814 16.551727l0 0c6.966614 15.820557 -0.23913574 34.307312 -16.094498 41.29132l0 0c-15.855347 6.9840393 -34.356216 -0.17941284 -41.32283 -16.0z" fill-rule="evenodd"/><path fill="#000000" fill-opacity="0.0" d="m192.7664 373.7743l71.49608 0l0 42.015747l-71.49608 0z" fill-rule="evenodd"/><path fill="#000000" d="m204.50078 400.69427l-1.515625 0l0 -13.359375l1.640625 0l0 4.765625q1.046875 -1.296875 2.65625 -1.296875q0.890625 0 1.6875 0.359375q0.796875 0.359375 1.3125 1.015625q0.515625 0.640625 0.796875 1.5625q0.296875 0.921875 0.296875 1.96875q0 2.484375 -1.234375 3.84375q-1.21875 1.359375 -2.953125 1.359375q-1.703125 0 -2.6875 -1.4375l0 1.21875zm-0.015625 -4.90625q0 1.734375 0.484375 2.515625q0.765625 1.265625 2.09375 1.265625q1.078125 0 1.859375 -0.9375q0.78125 -0.9375 0.78125 -2.78125q0 -1.890625 -0.75 -2.796875q-0.75 -0.90625 -1.828125 -0.90625q-1.0625 0 -1.859375 0.9375q-0.78125 0.9375 -0.78125 2.703125zm14.527771 -2.90625l0 -1.859375l1.859375 0l0 1.859375l-1.859375 0zm0 7.8125l0 -1.875l1.859375 0l0 1.875l-1.859375 0zm15.632233 0l-1.640625 0l0 -10.453125q-0.59375 0.5625 -1.5625 1.140625q-0.953125 0.5625 -1.71875 0.84375l0 -1.59375q1.375 -0.640625 2.40625 -1.5625q1.03125 -0.921875 1.453125 -1.78125l1.0625 0l0 13.40625z" fill-rule="nonzero"/><path fill="#fce5cd" d="m98.57218 407.42834l0 0c-6.9666214 -15.820557 0.23912811 -34.307312 16.094482 -41.29132l0 0c7.6140137 -3.3538513 16.245155 -3.5523071 23.994698 -0.5517273c7.749542 3.0005798 13.982651 8.954407 17.32814 16.551727l0 0c6.966614 15.820557 -0.23913574 34.307312 -16.094482 41.29132l0 0c-15.855362 6.9840393 -34.356224 -0.17941284 -41.322838 -16.0z" fill-rule="evenodd"/><path stroke="#000000" stroke-width="1.0" stroke-linejoin="round" stroke-linecap="butt" d="m98.57218 407.42834l0 0c-6.9666214 -15.820557 0.23912811 -34.307312 16.094482 -41.29132l0 0c7.6140137 -3.3538513 16.245155 -3.5523071 23.994698 -0.5517273c7.749542 3.0005798 13.982651 8.954407 17.32814 16.551727l0 0c6.966614 15.820557 -0.23913574 34.307312 -16.094482 41.29132l0 0c-15.855362 6.9840393 -34.356224 -0.17941284 -41.322838 -16.0z" fill-rule="evenodd"/><path fill="#000000" fill-opacity="0.0" d="m98.29921 373.7743l71.49606 0l0 42.015747l-71.49606 0z" fill-rule="evenodd"/><path fill="#000000" d="m114.846085 399.50677q-0.921875 0.765625 -1.765625 1.09375q-0.828125 0.3125 -1.796875 0.3125q-1.59375 0 -2.453125 -0.78125q-0.859375 -0.78125 -0.859375 -1.984375q0 -0.71875 0.328125 -1.296875q0.328125 -0.59375 0.84375 -0.9375q0.53125 -0.359375 1.1875 -0.546875q0.46875 -0.125 1.453125 -0.25q1.984375 -0.234375 2.921875 -0.5625q0.015625 -0.34375 0.015625 -0.421875q0 -1.0 -0.46875 -1.421875q-0.625 -0.546875 -1.875 -0.546875q-1.15625 0 -1.703125 0.40625q-0.546875 0.40625 -0.8125 1.421875l-1.609375 -0.21875q0.21875 -1.015625 0.71875 -1.640625q0.5 -0.640625 1.453125 -0.984375q0.953125 -0.34375 2.1875 -0.34375q1.25 0 2.015625 0.296875q0.78125 0.28125 1.140625 0.734375q0.375 0.4375 0.515625 1.109375q0.078125 0.421875 0.078125 1.515625l0 2.1875q0 2.28125 0.109375 2.890625q0.109375 0.59375 0.40625 1.15625l-1.703125 0q-0.265625 -0.515625 -0.328125 -1.1875zm-0.140625 -3.671875q-0.890625 0.375 -2.671875 0.625q-1.015625 0.140625 -1.4375 0.328125q-0.421875 0.1875 -0.65625 0.53125q-0.21875 0.34375 -0.21875 0.78125q0 0.65625 0.5 1.09375q0.5 0.4375 1.453125 0.4375q0.9375 0 1.671875 -0.40625q0.75 -0.421875 1.09375 -1.140625q0.265625 -0.5625 0.265625 -1.640625l0 -0.609375zm9.840271 -2.953125l0 -1.859375l1.859375 0l0 1.859375l-1.859375 0zm0 7.8125l0 -1.875l1.859375 0l0 1.875l-1.859375 0zm9.460358 -3.53125l1.640625 -0.21875q0.28125 1.40625 0.953125 2.015625q0.6875 0.609375 1.65625 0.609375q1.15625 0 1.953125 -0.796875q0.796875 -0.796875 0.796875 -1.984375q0 -1.125 -0.734375 -1.859375q-0.734375 -0.734375 -1.875 -0.734375q-0.46875 0 -1.15625 0.171875l0.1875 -1.4375q0.15625 0.015625 0.265625 0.015625q1.046875 0 1.875 -0.546875q0.84375 -0.546875 0.84375 -1.671875q0 -0.90625 -0.609375 -1.5q-0.609375 -0.59375 -1.578125 -0.59375q-0.953125 0 -1.59375 0.609375q-0.640625 0.59375 -0.8125 1.796875l-1.640625 -0.296875q0.296875 -1.640625 1.359375 -2.546875q1.0625 -0.90625 2.65625 -0.90625q1.09375 0 2.0 0.46875q0.921875 0.46875 1.40625 1.28125q0.5 0.8125 0.5 1.71875q0 0.859375 -0.46875 1.578125q-0.46875 0.703125 -1.375 1.125q1.1875 0.28125 1.84375 1.140625q0.65625 0.859375 0.65625 2.15625q0 1.734375 -1.28125 2.953125q-1.265625 1.21875 -3.21875 1.21875q-1.765625 0 -2.921875 -1.046875q-1.15625 -1.046875 -1.328125 -2.71875z" fill-rule="nonzero"/><path fill="#ffffff" d="m143.04433 312.2105l0 0c0 -17.290436 14.044861 -31.307098 31.370071 -31.307098l0 0c8.31987 0 16.298965 3.2984314 22.182007 9.169647c5.883026 5.871216 9.18808 13.83429 9.18808 22.137451l0 0c0 17.290436 -14.044861 31.307098 -31.370087 31.307098l0 0c-17.32521 0 -31.370071 -14.016663 -31.370071 -31.307098z" fill-rule="evenodd"/><path stroke="#000000" stroke-width="1.0" stroke-linejoin="round" stroke-linecap="butt" d="m143.04433 312.2105l0 0c0 -17.290436 14.044861 -31.307098 31.370071 -31.307098l0 0c8.31987 0 16.298965 3.2984314 22.182007 9.169647c5.883026 5.871216 9.18808 13.83429 9.18808 22.137451l0 0c0 17.290436 -14.044861 31.307098 -31.370087 31.307098l0 0c-17.32521 0 -31.370071 -14.016663 -31.370071 -31.307098z" fill-rule="evenodd"/><path fill="#000000" d="m170.0078 315.63052l1.71875 -0.140625q0.1875 1.25 0.875 1.890625q0.703125 0.625 1.6875 0.625q1.1875 0 2.0 -0.890625q0.828125 -0.890625 0.828125 -2.359375q0 -1.40625 -0.796875 -2.21875q-0.78125 -0.8125 -2.0625 -0.8125q-0.78125 0 -1.421875 0.359375q-0.640625 0.359375 -1.0 0.9375l-1.546875 -0.203125l1.296875 -6.859375l6.640625 0l0 1.5625l-5.328125 0l-0.71875 3.59375q1.203125 -0.84375 2.515625 -0.84375q1.75 0 2.953125 1.21875q1.203125 1.203125 1.203125 3.109375q0 1.8125 -1.046875 3.140625q-1.296875 1.625 -3.515625 1.625q-1.8125 0 -2.96875 -1.015625q-1.15625 -1.03125 -1.3125 -2.71875z" fill-rule="nonzero"/><path fill="#ffffff" d="m199.15509 400.0086l0 0c0 -12.367676 10.026016 -22.393677 22.393707 -22.393677l0 0c5.9391785 0 11.635101 2.359314 15.834732 6.55896c4.199646 4.1996155 6.558975 9.895538 6.558975 15.834717l0 0c0 12.367706 -10.026001 22.393707 -22.393707 22.393707l0 0c-12.367691 0 -22.393707 -10.026001 -22.393707 -22.393707z" fill-rule="evenodd"/><path stroke="#000000" stroke-width="1.0" stroke-linejoin="round" stroke-linecap="butt" d="m199.15509 400.0086l0 0c0 -12.367676 10.026016 -22.393677 22.393707 -22.393677l0 0c5.9391785 0 11.635101 2.359314 15.834732 6.55896c4.199646 4.1996155 6.558975 9.895538 6.558975 15.834717l0 0c0 12.367706 -10.026001 22.393707 -22.393707 22.393707l0 0c-12.367691 0 -22.393707 -10.026001 -22.393707 -22.393707z" fill-rule="evenodd"/><path fill="#000000" fill-opacity="0.0" d="m205.71407 415.84335l-22.771652 31.370087" fill-rule="evenodd"/><path stroke="#000000" stroke-width="4.0" stroke-linejoin="round" stroke-linecap="butt" d="m205.71407 415.84335l-22.771652 31.370087" fill-rule="evenodd"/><path fill="#000000" fill-opacity="0.0" d="m237.38353 415.84335l21.16536 31.968506" fill-rule="evenodd"/><path stroke="#000000" stroke-width="4.0" stroke-linejoin="round" stroke-linecap="butt" d="m237.38353 415.84335l21.16536 31.968506" fill-rule="evenodd"/><path fill="#fce5cd" d="m240.17323 489.58847l0 0c-6.966614 -15.820587 0.23912048 -34.307343 16.094498 -41.29135l0 0c7.613983 -3.3538208 16.245148 -3.5522766 23.99469 -0.5516968c7.7495117 3.0005798 13.9826355 8.954407 17.328125 16.551697l0 0c6.966614 15.820587 -0.23913574 34.307343 -16.094482 41.29135l0 0c-15.855347 6.9839783 -34.356216 -0.17944336 -41.32283 -16.0z" fill-rule="evenodd"/><path stroke="#000000" stroke-width="1.0" stroke-linejoin="round" stroke-linecap="butt" d="m240.17323 489.58847l0 0c-6.966614 -15.820587 0.23912048 -34.307343 16.094498 -41.29135l0 0c7.613983 -3.3538208 16.245148 -3.5522766 23.99469 -0.5516968c7.7495117 3.0005798 13.9826355 8.954407 17.328125 16.551697l0 0c6.966614 15.820587 -0.23913574 34.307343 -16.094482 41.29135l0 0c-15.855347 6.9839783 -34.356216 -0.17944336 -41.32283 -16.0z" fill-rule="evenodd"/><path fill="#000000" fill-opacity="0.0" d="m239.90027 455.9344l71.49606 0l0 42.015747l-71.49606 0z" fill-rule="evenodd"/><path fill="#000000" d="m251.63464 482.85437l-1.515625 0l0 -13.359375l1.640625 0l0 4.765625q1.046875 -1.296875 2.65625 -1.296875q0.890625 0 1.6875 0.359375q0.796875 0.359375 1.3125 1.015625q0.515625 0.640625 0.796875 1.5625q0.296875 0.921875 0.296875 1.96875q0 2.484375 -1.234375 3.84375q-1.21875 1.359375 -2.953125 1.359375q-1.703125 0 -2.6875 -1.4375l0 1.21875zm-0.015625 -4.90625q0 1.734375 0.484375 2.515625q0.765625 1.265625 2.09375 1.265625q1.078125 0 1.859375 -0.9375q0.78125 -0.9375 0.78125 -2.78125q0 -1.890625 -0.75 -2.796875q-0.75 -0.90625 -1.828125 -0.90625q-1.0625 0 -1.859375 0.9375q-0.78125 0.9375 -0.78125 2.703125zm14.527771 -2.90625l0 -1.859375l1.859375 0l0 1.859375l-1.859375 0zm0 7.8125l0 -1.875l1.859375 0l0 1.875l-1.859375 0zm15.632233 0l-1.640625 0l0 -10.453125q-0.59375 0.5625 -1.5625 1.140625q-0.953125 0.5625 -1.71875 0.84375l0 -1.59375q1.375 -0.640625 2.40625 -1.5625q1.03125 -0.921875 1.453125 -1.78125l1.0625 0l0 13.40625z" fill-rule="nonzero"/><path fill="#fce5cd" d="m145.70604 489.58847l0 0c-6.966614 -15.820587 0.23913574 -34.307343 16.094482 -41.29135l0 0c7.6140137 -3.3538208 16.245163 -3.5522766 23.994705 -0.5516968c7.749527 3.0005798 13.982651 8.954407 17.328125 16.551697l0 0c6.966629 15.820587 -0.23912048 34.307343 -16.094482 41.29135l0 0c-15.855347 6.9839783 -34.356216 -0.17944336 -41.32283 -16.0z" fill-rule="evenodd"/><path stroke="#000000" stroke-width="1.0" stroke-linejoin="round" stroke-linecap="butt" d="m145.70604 489.58847l0 0c-6.966614 -15.820587 0.23913574 -34.307343 16.094482 -41.29135l0 0c7.6140137 -3.3538208 16.245163 -3.5522766 23.994705 -0.5516968c7.749527 3.0005798 13.982651 8.954407 17.328125 16.551697l0 0c6.966629 15.820587 -0.23912048 34.307343 -16.094482 41.29135l0 0c-15.855347 6.9839783 -34.356216 -0.17944336 -41.32283 -16.0z" fill-rule="evenodd"/><path fill="#000000" fill-opacity="0.0" d="m145.43307 455.9344l71.49606 0l0 42.015747l-71.49606 0z" fill-rule="evenodd"/><path fill="#000000" d="m161.97995 479.3075l1.609375 0.21875q-0.265625 1.65625 -1.359375 2.609375q-1.078125 0.9375 -2.671875 0.9375q-1.984375 0 -3.1875 -1.296875q-1.203125 -1.296875 -1.203125 -3.71875q0 -1.578125 0.515625 -2.75q0.515625 -1.171875 1.578125 -1.75q1.0625 -0.59375 2.3125 -0.59375q1.578125 0 2.578125 0.796875q1.0 0.796875 1.28125 2.265625l-1.59375 0.234375q-0.234375 -0.96875 -0.8125 -1.453125q-0.578125 -0.5 -1.390625 -0.5q-1.234375 0 -2.015625 0.890625q-0.78125 0.890625 -0.78125 2.8125q0 1.953125 0.75 2.84375q0.75 0.875 1.953125 0.875q0.96875 0 1.609375 -0.59375q0.65625 -0.59375 0.828125 -1.828125zm8.652054 -4.265625l0 -1.859375l1.859375 0l0 1.859375l-1.859375 0zm0 7.8125l0 -1.875l1.859375 0l0 1.875l-1.859375 0zm15.632233 0l-1.640625 0l0 -10.453125q-0.59375 0.5625 -1.5625 1.140625q-0.953125 0.5625 -1.71875 0.84375l0 -1.59375q1.375 -0.640625 2.40625 -1.5625q1.03125 -0.921875 1.453125 -1.78125l1.0625 0l0 13.40625z" fill-rule="nonzero"/><path fill="#000000" fill-opacity="0.0" d="m153.85039 447.0853l31.181107 0l0 42.015747l-31.181107 0z" fill-rule="evenodd"/><path fill="#ffffff" d="m190.17819 394.3706l0 0c0 -17.290405 14.044861 -31.307068 31.370071 -31.307068l0 0c8.31987 0 16.298965 3.2984009 22.181992 9.169617c5.8830414 5.871216 9.188095 13.83432 9.188095 22.137451l0 0c0 17.290436 -14.044876 31.307098 -31.370087 31.307098l0 0c-17.32521 0 -31.370071 -14.016663 -31.370071 -31.307098z" fill-rule="evenodd"/><path stroke="#000000" stroke-width="1.0" stroke-linejoin="round" stroke-linecap="butt" d="m190.17819 394.3706l0 0c0 -17.290405 14.044861 -31.307068 31.370071 -31.307068l0 0c8.31987 0 16.298965 3.2984009 22.181992 9.169617c5.8830414 5.871216 9.188095 13.83432 9.188095 22.137451l0 0c0 17.290436 -14.044876 31.307098 -31.370087 31.307098l0 0c-17.32521 0 -31.370071 -14.016663 -31.370071 -31.307098z" fill-rule="evenodd"/><path fill="#000000" d="m225.75104 399.7125l0 1.578125l-8.828125 0q-0.015625 -0.59375 0.1875 -1.140625q0.34375 -0.90625 1.078125 -1.78125q0.75 -0.875 2.15625 -2.015625q2.171875 -1.78125 2.9375 -2.828125q0.765625 -1.046875 0.765625 -1.96875q0 -0.984375 -0.703125 -1.640625q-0.6875 -0.671875 -1.8125 -0.671875q-1.1875 0 -1.90625 0.71875q-0.703125 0.703125 -0.703125 1.953125l-1.6875 -0.171875q0.171875 -1.890625 1.296875 -2.875q1.140625 -0.984375 3.03125 -0.984375q1.921875 0 3.046875 1.0625q1.125 1.0625 1.125 2.640625q0 0.796875 -0.328125 1.578125q-0.328125 0.78125 -1.09375 1.640625q-0.75 0.84375 -2.53125 2.34375q-1.46875 1.234375 -1.890625 1.6875q-0.421875 0.4375 -0.6875 0.875l6.546875 0z" fill-rule="nonzero"/><path fill="#000000" fill-opacity="0.0" d="m8.034121 29.141733l44.7874 0l0 42.015747l-44.7874 0z" fill-rule="evenodd"/><path fill="#000000" d="m23.987246 56.06173l-1.640625 0l0 -10.453125q-0.59375 0.5625 -1.5625 1.140625q-0.953125 0.5625 -1.71875 0.84375l0 -1.59375q1.375 -0.640625 2.40625 -1.5625q1.03125 -0.921875 1.453125 -1.78125l1.0625 0l0 13.40625zm5.110092 0l0 -1.875l1.875 0l0 1.875l-1.875 0z" fill-rule="nonzero"/><path fill="#000000" fill-opacity="0.0" d="m8.034121 124.20998l44.7874 0l0 42.015747l-44.7874 0z" fill-rule="evenodd"/><path fill="#000000" d="m26.424746 149.55185l0 1.578125l-8.828125 0q-0.015625 -0.59375 0.1875 -1.140625q0.34375 -0.90625 1.078125 -1.78125q0.75 -0.875 2.15625 -2.015625q2.171875 -1.78125 2.9375 -2.828125q0.765625 -1.046875 0.765625 -1.96875q0 -0.984375 -0.703125 -1.640625q-0.6875 -0.671875 -1.8125 -0.671875q-1.1875 0 -1.90625 0.71875q-0.703125 0.703125 -0.703125 1.953125l-1.6875 -0.171875q0.171875 -1.890625 1.296875 -2.875q1.140625 -0.984375 3.03125 -0.984375q1.921875 0 3.046875 1.0625q1.125 1.0625 1.125 2.640625q0 0.796875 -0.328125 1.578125q-0.328125 0.78125 -1.09375 1.640625q-0.75 0.84375 -2.53125 2.34375q-1.46875 1.234375 -1.890625 1.6875q-0.421875 0.4375 -0.6875 0.875l6.546875 0zm2.6725922 1.578125l0 -1.875l1.875 0l0 1.875l-1.875 0z" fill-rule="nonzero"/><path fill="#000000" fill-opacity="0.0" d="m8.034121 280.90158l44.7874 0l0 42.015747l-44.7874 0z" fill-rule="evenodd"/><path fill="#000000" d="m17.81537 304.2903l1.640625 -0.21875q0.28125 1.40625 0.953125 2.015625q0.6875 0.609375 1.65625 0.609375q1.15625 0 1.953125 -0.796875q0.796875 -0.796875 0.796875 -1.984375q0 -1.125 -0.734375 -1.859375q-0.734375 -0.734375 -1.875 -0.734375q-0.46875 0 -1.15625 0.171875l0.1875 -1.4375q0.15625 0.015625 0.265625 0.015625q1.046875 0 1.875 -0.546875q0.84375 -0.546875 0.84375 -1.671875q0 -0.90625 -0.609375 -1.5q-0.609375 -0.59375 -1.578125 -0.59375q-0.953125 0 -1.59375 0.609375q-0.640625 0.59375 -0.8125 1.796875l-1.640625 -0.296875q0.296875 -1.640625 1.359375 -2.546875q1.0625 -0.90625 2.65625 -0.90625q1.09375 0 2.0 0.46875q0.921875 0.46875 1.40625 1.28125q0.5 0.8125 0.5 1.71875q0 0.859375 -0.46875 1.578125q-0.46875 0.703125 -1.375 1.125q1.1875 0.28125 1.84375 1.140625q0.65625 0.859375 0.65625 2.15625q0 1.734375 -1.28125 2.953125q-1.265625 1.21875 -3.21875 1.21875q-1.765625 0 -2.921875 -1.046875q-1.15625 -1.046875 -1.328125 -2.71875zm11.281967 3.53125l0 -1.875l1.875 0l0 1.875l-1.875 0z" fill-rule="nonzero"/></g></svg>